<svg width="24" height="24" viewBox="0 0 24 24" fill="none" xmlns="http://www.w3.org/2000/svg">
<path d="M22.6663 4.63876C22.3769 3.89148 21.9347 3.21286 21.3679 2.64633C20.8012 2.0798 20.1224 1.63784 19.375 1.34876C18.5004 1.02045 17.5765 0.842933 16.6425 0.823756C15.4388 0.771256 15.0575 0.756256 12.005 0.756256C8.9525 0.756256 8.56125 0.756256 7.3675 0.823756C6.43424 0.841952 5.51095 1.01951 4.6375 1.34876C3.88992 1.63751 3.21096 2.07934 2.64417 2.64592C2.07738 3.21249 1.63529 3.89129 1.34625 4.63876C1.01788 5.51327 0.840771 6.4373 0.822502 7.37126C0.768752 8.57376 0.752502 8.95501 0.752502 12.0088C0.752502 15.0613 0.752502 15.45 0.822502 16.6463C0.841252 17.5813 1.0175 18.5038 1.34625 19.38C1.6361 20.1272 2.07862 20.8057 2.64555 21.3722C3.21247 21.9387 3.89133 22.3807 4.63875 22.67C5.51054 23.0115 6.43422 23.2017 7.37 23.2325C8.57375 23.285 8.955 23.3013 12.0075 23.3013C15.06 23.3013 15.4513 23.3013 16.645 23.2325C17.5789 23.2135 18.5028 23.0364 19.3775 22.7088C20.1247 22.419 20.8033 21.9767 21.37 21.41C21.9366 20.8433 22.379 20.1647 22.6688 19.4175C22.9975 18.5425 23.1738 17.62 23.1925 16.685C23.2463 15.4825 23.2625 15.1013 23.2625 12.0475C23.2625 8.99376 23.2625 8.60626 23.1925 7.41001C23.178 6.46285 22.9999 5.52532 22.6663 4.63876ZM21.1438 16.5538C21.1357 17.2741 21.0042 17.9878 20.755 18.6638C20.5673 19.1498 20.2799 19.5913 19.9113 19.9596C19.5428 20.3279 19.1012 20.6151 18.615 20.8025C17.9465 21.0506 17.2405 21.1821 16.5275 21.1913C15.34 21.2463 15.005 21.26 11.96 21.26C8.9125 21.26 8.60125 21.26 7.39125 21.1913C6.67866 21.1825 5.97291 21.051 5.305 20.8025C4.81711 20.6162 4.37375 20.3296 4.00361 19.9612C3.63348 19.5928 3.3448 19.1508 3.15625 18.6638C2.91056 17.9951 2.77914 17.2898 2.7675 16.5775C2.71375 15.39 2.70125 15.055 2.70125 12.01C2.70125 8.96376 2.70125 8.65251 2.7675 7.44126C2.77558 6.72128 2.90707 6.00803 3.15625 5.33251C3.5375 4.34626 4.31875 3.57001 5.305 3.19251C5.97324 2.94518 6.67878 2.81371 7.39125 2.80376C8.58 2.75001 8.91375 2.73501 11.96 2.73501C15.0063 2.73501 15.3188 2.73501 16.5275 2.80376C17.2405 2.81233 17.9467 2.94385 18.615 3.19251C19.1012 3.38035 19.5427 3.66776 19.9112 4.03629C20.2798 4.40483 20.5672 4.84635 20.755 5.33251C21.0007 6.00119 21.1321 6.70646 21.1438 7.41876C21.1975 8.60751 21.2113 8.94126 21.2113 11.9875C21.2113 15.0325 21.2113 15.36 21.1575 16.555H21.1438V16.5538Z" fill="white"/>
</svg>
