<svg width="175" height="19" viewBox="0 0 175 19" fill="none" xmlns="http://www.w3.org/2000/svg">
<path d="M1.47528 18C1.31528 18 1.17128 17.944 1.04328 17.832C0.915281 17.704 0.851281 17.552 0.851281 17.376V1.824C0.851281 1.648 0.915281 1.504 1.04328 1.392C1.17128 1.264 1.31528 1.2 1.47528 1.2H13.0433C13.2193 1.2 13.3713 1.264 13.4993 1.392C13.6273 1.504 13.6913 1.648 13.6913 1.824V4.872C13.6913 5.032 13.6273 5.176 13.4993 5.304C13.3713 5.432 13.2193 5.496 13.0433 5.496H5.91528V8.136H12.5633C12.7393 8.136 12.8913 8.2 13.0193 8.328C13.1473 8.44 13.2113 8.584 13.2113 8.76V11.784C13.2113 11.96 13.1473 12.112 13.0193 12.24C12.8913 12.352 12.7393 12.408 12.5633 12.408H5.91528V17.376C5.91528 17.552 5.85128 17.704 5.72328 17.832C5.61128 17.944 5.46728 18 5.29128 18H1.47528ZM16.6393 18C16.4793 18 16.3353 17.944 16.2073 17.832C16.0793 17.704 16.0153 17.552 16.0153 17.376V1.824C16.0153 1.648 16.0793 1.504 16.2073 1.392C16.3353 1.264 16.4793 1.2 16.6393 1.2H20.7193C20.8953 1.2 21.0393 1.264 21.1513 1.392C21.2793 1.504 21.3433 1.648 21.3433 1.824V17.376C21.3433 17.552 21.2793 17.704 21.1513 17.832C21.0393 17.944 20.8953 18 20.7193 18H16.6393ZM28.6562 18C28.4802 18 28.3282 17.944 28.2002 17.832C28.0882 17.704 28.0322 17.552 28.0322 17.376V5.664H23.9042C23.7282 5.664 23.5762 5.608 23.4482 5.496C23.3362 5.368 23.2802 5.216 23.2802 5.04V1.824C23.2802 1.648 23.3362 1.504 23.4482 1.392C23.5762 1.264 23.7282 1.2 23.9042 1.2H37.3922C37.5682 1.2 37.7122 1.264 37.8242 1.392C37.9522 1.504 38.0162 1.648 38.0162 1.824V5.04C38.0162 5.216 37.9522 5.368 37.8242 5.496C37.7122 5.608 37.5682 5.664 37.3922 5.664H33.2642V17.376C33.2642 17.552 33.2002 17.704 33.0722 17.832C32.9602 17.944 32.8162 18 32.6402 18H28.6562ZM40.5925 18C40.4325 18 40.2885 17.944 40.1605 17.832C40.0325 17.704 39.9685 17.552 39.9685 17.376V1.824C39.9685 1.648 40.0325 1.504 40.1605 1.392C40.2885 1.264 40.4325 1.2 40.5925 1.2H43.7845C44.0725 1.2 44.2805 1.272 44.4085 1.416C44.5365 1.544 44.6245 1.64 44.6725 1.704L49.6165 9.648V1.824C49.6165 1.648 49.6805 1.504 49.8085 1.392C49.9365 1.264 50.0805 1.2 50.2405 1.2H53.8645C54.0405 1.2 54.1845 1.264 54.2965 1.392C54.4245 1.504 54.4885 1.648 54.4885 1.824V17.376C54.4885 17.552 54.4245 17.704 54.2965 17.832C54.1845 17.944 54.0405 18 53.8645 18H50.6965C50.3925 18 50.1765 17.936 50.0485 17.808C49.9205 17.664 49.8325 17.56 49.7845 17.496L44.8405 10.008V17.376C44.8405 17.552 44.7765 17.704 44.6485 17.832C44.5365 17.944 44.3925 18 44.2165 18H40.5925ZM58.1237 18C57.9637 18 57.8197 17.944 57.6917 17.832C57.5637 17.704 57.4997 17.552 57.4997 17.376V1.824C57.4997 1.648 57.5637 1.504 57.6917 1.392C57.8197 1.264 57.9637 1.2 58.1237 1.2H69.8837C70.0597 1.2 70.2117 1.264 70.3397 1.392C70.4677 1.504 70.5317 1.648 70.5317 1.824V4.656C70.5317 4.816 70.4677 4.96 70.3397 5.088C70.2117 5.216 70.0597 5.28 69.8837 5.28H62.4677V7.656H69.3557C69.5317 7.656 69.6837 7.72 69.8117 7.848C69.9397 7.96 70.0037 8.104 70.0037 8.28V10.872C70.0037 11.048 69.9397 11.2 69.8117 11.328C69.6837 11.44 69.5317 11.496 69.3557 11.496H62.4677V13.92H70.0757C70.2517 13.92 70.4037 13.984 70.5317 14.112C70.6597 14.24 70.7237 14.392 70.7237 14.568V17.376C70.7237 17.552 70.6597 17.704 70.5317 17.832C70.4037 17.944 70.2517 18 70.0757 18H58.1237ZM79.8274 18.24C78.1474 18.24 76.7474 18.008 75.6274 17.544C74.5234 17.064 73.6914 16.448 73.1314 15.696C72.5874 14.928 72.2994 14.12 72.2674 13.272C72.2674 13.128 72.3154 13.008 72.4114 12.912C72.5074 12.816 72.6274 12.768 72.7714 12.768H76.5874C76.8114 12.768 76.9874 12.808 77.1154 12.888C77.2434 12.952 77.3794 13.048 77.5234 13.176C77.6674 13.352 77.8354 13.52 78.0274 13.68C78.2194 13.824 78.4674 13.944 78.7714 14.04C79.0754 14.12 79.4274 14.16 79.8274 14.16C80.5634 14.16 81.1314 14.064 81.5314 13.872C81.9314 13.664 82.1314 13.384 82.1314 13.032C82.1314 12.76 82.0194 12.536 81.7954 12.36C81.5874 12.184 81.2274 12.024 80.7154 11.88C80.2034 11.736 79.5074 11.584 78.6274 11.424C77.3954 11.216 76.3314 10.912 75.4354 10.512C74.5394 10.096 73.8514 9.544 73.3714 8.856C72.9074 8.152 72.6754 7.288 72.6754 6.264C72.6754 5.224 72.9634 4.304 73.5394 3.504C74.1314 2.704 74.9474 2.08 75.9874 1.632C77.0434 1.184 78.2674 0.959999 79.6594 0.959999C80.8114 0.959999 81.8274 1.112 82.7074 1.416C83.6034 1.72 84.3554 2.12 84.9634 2.616C85.5714 3.096 86.0354 3.616 86.3554 4.176C86.6754 4.736 86.8434 5.272 86.8594 5.784C86.8594 5.928 86.8034 6.056 86.6914 6.168C86.5954 6.264 86.4834 6.312 86.3554 6.312H82.3474C82.1554 6.312 81.9874 6.28 81.8434 6.216C81.7154 6.152 81.5954 6.048 81.4834 5.904C81.4034 5.68 81.2034 5.48 80.8834 5.304C80.5634 5.128 80.1554 5.04 79.6594 5.04C79.1154 5.04 78.6994 5.136 78.4114 5.328C78.1234 5.504 77.9794 5.768 77.9794 6.12C77.9794 6.36 78.0674 6.568 78.2434 6.744C78.4194 6.92 78.7314 7.08 79.1794 7.224C79.6274 7.352 80.2514 7.496 81.0514 7.656C82.5714 7.88 83.7954 8.2 84.7234 8.616C85.6674 9.032 86.3554 9.576 86.7874 10.248C87.2194 10.92 87.4354 11.76 87.4354 12.768C87.4354 13.904 87.1074 14.88 86.4514 15.696C85.7954 16.512 84.8914 17.144 83.7394 17.592C82.6034 18.024 81.2994 18.24 79.8274 18.24ZM96.1399 18.24C94.4599 18.24 93.0599 18.008 91.9399 17.544C90.8359 17.064 90.0039 16.448 89.4439 15.696C88.8999 14.928 88.6119 14.12 88.5799 13.272C88.5799 13.128 88.6279 13.008 88.7239 12.912C88.8199 12.816 88.9399 12.768 89.0839 12.768H92.8999C93.1239 12.768 93.2999 12.808 93.4279 12.888C93.5559 12.952 93.6919 13.048 93.8359 13.176C93.9799 13.352 94.1479 13.52 94.3399 13.68C94.5319 13.824 94.7799 13.944 95.0839 14.04C95.3879 14.12 95.7399 14.16 96.1399 14.16C96.8759 14.16 97.4439 14.064 97.8439 13.872C98.2439 13.664 98.4439 13.384 98.4439 13.032C98.4439 12.76 98.3319 12.536 98.1079 12.36C97.8999 12.184 97.5399 12.024 97.0279 11.88C96.5159 11.736 95.8199 11.584 94.9399 11.424C93.7079 11.216 92.6439 10.912 91.7479 10.512C90.8519 10.096 90.1639 9.544 89.6839 8.856C89.2199 8.152 88.9879 7.288 88.9879 6.264C88.9879 5.224 89.2759 4.304 89.8519 3.504C90.4439 2.704 91.2599 2.08 92.2999 1.632C93.3559 1.184 94.5799 0.959999 95.9719 0.959999C97.1239 0.959999 98.1399 1.112 99.0199 1.416C99.9159 1.72 100.668 2.12 101.276 2.616C101.884 3.096 102.348 3.616 102.668 4.176C102.988 4.736 103.156 5.272 103.172 5.784C103.172 5.928 103.116 6.056 103.004 6.168C102.908 6.264 102.796 6.312 102.668 6.312H98.6599C98.4679 6.312 98.2999 6.28 98.1559 6.216C98.0279 6.152 97.9079 6.048 97.7959 5.904C97.7159 5.68 97.5159 5.48 97.1959 5.304C96.8759 5.128 96.4679 5.04 95.9719 5.04C95.4279 5.04 95.0119 5.136 94.7239 5.328C94.4359 5.504 94.2919 5.768 94.2919 6.12C94.2919 6.36 94.3799 6.568 94.5559 6.744C94.7319 6.92 95.0439 7.08 95.4919 7.224C95.9399 7.352 96.5639 7.496 97.3639 7.656C98.8839 7.88 100.108 8.2 101.036 8.616C101.98 9.032 102.668 9.576 103.1 10.248C103.532 10.92 103.748 11.76 103.748 12.768C103.748 13.904 103.42 14.88 102.764 15.696C102.108 16.512 101.204 17.144 100.052 17.592C98.9159 18.024 97.6119 18.24 96.1399 18.24ZM117.834 18.24C116.314 18.24 114.986 18.008 113.85 17.544C112.714 17.064 111.818 16.344 111.162 15.384C110.522 14.424 110.17 13.208 110.106 11.736C110.09 11.08 110.082 10.376 110.082 9.624C110.082 8.872 110.09 8.152 110.106 7.464C110.17 6.024 110.53 4.824 111.186 3.864C111.858 2.888 112.762 2.16 113.898 1.68C115.05 1.2 116.362 0.959999 117.834 0.959999C118.89 0.959999 119.874 1.088 120.786 1.344C121.714 1.584 122.538 1.96 123.258 2.472C123.978 2.968 124.546 3.592 124.962 4.344C125.378 5.08 125.594 5.944 125.61 6.936C125.61 7.08 125.554 7.2 125.442 7.296C125.346 7.392 125.226 7.44 125.082 7.44H121.026C120.786 7.44 120.61 7.392 120.498 7.296C120.386 7.2 120.29 7.032 120.21 6.792C120.002 6.104 119.698 5.64 119.298 5.4C118.898 5.16 118.41 5.04 117.834 5.04C117.13 5.04 116.57 5.232 116.154 5.616C115.738 5.984 115.514 6.64 115.482 7.584C115.434 8.896 115.434 10.24 115.482 11.616C115.514 12.56 115.738 13.224 116.154 13.608C116.57 13.976 117.13 14.16 117.834 14.16C118.41 14.16 118.898 14.032 119.298 13.776C119.714 13.52 120.018 13.064 120.21 12.408C120.274 12.152 120.362 11.984 120.474 11.904C120.602 11.808 120.786 11.76 121.026 11.76H125.082C125.226 11.76 125.346 11.808 125.442 11.904C125.554 12 125.61 12.12 125.61 12.264C125.594 13.256 125.378 14.128 124.962 14.88C124.546 15.616 123.978 16.24 123.258 16.752C122.538 17.248 121.714 17.624 120.786 17.88C119.874 18.12 118.89 18.24 117.834 18.24ZM128.436 18C128.276 18 128.132 17.944 128.004 17.832C127.876 17.704 127.812 17.552 127.812 17.376V1.824C127.812 1.648 127.876 1.504 128.004 1.392C128.132 1.264 128.276 1.2 128.436 1.2H132.42C132.596 1.2 132.748 1.264 132.876 1.392C133.004 1.504 133.068 1.648 133.068 1.824V13.728H140.004C140.18 13.728 140.332 13.792 140.46 13.92C140.588 14.032 140.652 14.176 140.652 14.352V17.376C140.652 17.552 140.588 17.704 140.46 17.832C140.332 17.944 140.18 18 140.004 18H128.436ZM149.571 18.24C148.083 18.24 146.771 18.008 145.635 17.544C144.515 17.08 143.635 16.36 142.995 15.384C142.371 14.392 142.059 13.144 142.059 11.64V1.824C142.059 1.648 142.123 1.504 142.251 1.392C142.379 1.264 142.523 1.2 142.683 1.2H146.595C146.771 1.2 146.915 1.264 147.027 1.392C147.155 1.504 147.219 1.648 147.219 1.824V11.568C147.219 12.384 147.419 13 147.819 13.416C148.219 13.832 148.795 14.04 149.547 14.04C150.299 14.04 150.867 13.832 151.251 13.416C151.651 13 151.851 12.384 151.851 11.568V1.824C151.851 1.648 151.915 1.504 152.043 1.392C152.171 1.264 152.323 1.2 152.499 1.2H156.387C156.563 1.2 156.707 1.264 156.819 1.392C156.947 1.504 157.011 1.648 157.011 1.824V11.64C157.011 13.144 156.699 14.392 156.075 15.384C155.451 16.36 154.579 17.08 153.459 17.544C152.339 18.008 151.043 18.24 149.571 18.24ZM160.499 18C160.339 18 160.195 17.944 160.067 17.832C159.939 17.704 159.875 17.552 159.875 17.376V1.824C159.875 1.648 159.939 1.504 160.067 1.392C160.195 1.264 160.339 1.2 160.499 1.2H168.155C169.611 1.2 170.803 1.392 171.731 1.776C172.659 2.16 173.347 2.712 173.795 3.432C174.243 4.152 174.467 5.04 174.467 6.096C174.467 6.64 174.355 7.128 174.131 7.56C173.923 7.976 173.667 8.328 173.363 8.616C173.059 8.888 172.771 9.088 172.499 9.216C173.123 9.488 173.667 9.952 174.131 10.608C174.595 11.248 174.827 11.984 174.827 12.816C174.827 13.936 174.571 14.88 174.059 15.648C173.563 16.416 172.835 17 171.875 17.4C170.931 17.8 169.771 18 168.395 18H160.499ZM165.035 14.376H167.843C168.387 14.376 168.787 14.216 169.043 13.896C169.299 13.56 169.427 13.192 169.427 12.792C169.427 12.376 169.291 12.016 169.019 11.712C168.747 11.392 168.355 11.232 167.843 11.232H165.035V14.376ZM165.035 7.704H167.603C168.115 7.704 168.491 7.56 168.731 7.272C168.971 6.984 169.091 6.648 169.091 6.264C169.091 5.88 168.971 5.544 168.731 5.256C168.491 4.968 168.115 4.824 167.603 4.824H165.035V7.704Z" fill="url(#paint0_linear_9_42)"/>
<defs>
<linearGradient id="paint0_linear_9_42" x1="-1" y1="9.99999" x2="176" y2="9.99999" gradientUnits="userSpaceOnUse">
<stop stop-color="#131313"/>
<stop offset="1" stop-color="#EBEBEB"/>
</linearGradient>
</defs>
</svg>
