<svg width="30" height="26" viewBox="0 0 30 26" fill="none" xmlns="http://www.w3.org/2000/svg">
<path d="M9.42375 25.125C20.745 25.125 26.9381 15.7444 26.9381 7.62374C26.9381 7.36124 26.9381 7.09499 26.9269 6.83249C28.1326 5.95965 29.1732 4.87902 30 3.64124C28.8737 4.13783 27.6802 4.46512 26.4581 4.61249C27.7454 3.84306 28.7095 2.63243 29.1712 1.20561C27.9619 1.92209 26.6382 2.42506 25.2581 2.69249C24.3303 1.70441 23.1026 1.04983 21.7652 0.830158C20.4277 0.610482 19.0551 0.837965 17.86 1.47737C16.6649 2.11677 15.714 3.13242 15.1546 4.36698C14.5952 5.60153 14.4585 6.98611 14.7656 8.30624C12.3183 8.18352 9.92403 7.54774 7.7382 6.44013C5.55238 5.33252 3.62378 3.77782 2.0775 1.87686C1.29251 3.23264 1.05295 4.83636 1.40746 6.36236C1.76197 7.88836 2.68398 9.22223 3.98625 10.0931C3.01039 10.06 2.05598 9.79791 1.2 9.32811V9.41249C1.20168 10.8328 1.6937 12.2089 2.59289 13.3083C3.49208 14.4077 4.74328 15.1629 6.135 15.4462C5.60674 15.5918 5.06106 15.6643 4.51312 15.6619C4.12684 15.663 3.74134 15.6272 3.36188 15.555C3.75522 16.7776 4.52114 17.8465 5.55234 18.6121C6.58354 19.3777 7.82838 19.8016 9.1125 19.8244C6.93104 21.5377 4.23638 22.467 1.4625 22.4625C0.973726 22.4646 0.485293 22.4364 0 22.3781C2.81534 24.173 6.08493 25.126 9.42375 25.125Z" fill="white"/>
</svg>
