<svg width="25" height="25" viewBox="0 0 25 25" fill="none" xmlns="http://www.w3.org/2000/svg">
<g id="youtube">
<path id="Vector" d="M23.8564 6.77446C23.5838 5.74798 22.7805 4.93956 21.7607 4.66521C19.9122 4.16669 12.4998 4.16669 12.4998 4.16669C12.4998 4.16669 5.08749 4.16669 3.23892 4.66521C2.21909 4.9396 1.41587 5.74798 1.14326 6.77446C0.647949 8.635 0.647949 12.5169 0.647949 12.5169C0.647949 12.5169 0.647949 16.3987 1.14326 18.2593C1.41587 19.2857 2.21909 20.0605 3.23892 20.3348C5.08749 20.8334 12.4998 20.8334 12.4998 20.8334C12.4998 20.8334 19.9121 20.8334 21.7607 20.3348C22.7805 20.0605 23.5838 19.2857 23.8564 18.2593C24.3517 16.3987 24.3517 12.5169 24.3517 12.5169C24.3517 12.5169 24.3517 8.635 23.8564 6.77446ZM10.0756 16.0413V8.99242L16.2708 12.5169L10.0756 16.0413Z" fill="white" fill-opacity="0.5"/>
</g>
</svg>
